<svg xmlns="http://www.w3.org/2000/svg" version="1.1" xmlns:xlink="http://www.w3.org/1999/xlink" xmlns:svgjs="http://svgjs.dev/svgjs" width="1000" height="227" viewBox="0 0 1000 227"><g transform="matrix(1,0,0,1,-0.6060499050070121,0.5361331829988956)"><svg viewBox="0 0 396 90" data-background-color="#ffffff" preserveAspectRatio="xMidYMid meet" height="227" width="1000" xmlns="http://www.w3.org/2000/svg" xmlns:xlink="http://www.w3.org/1999/xlink"><g id="tight-bounds" transform="matrix(1,0,0,1,0.23999593537729424,-0.21256381704802152)"><svg viewBox="0 0 395.52 90.42512763409607" height="90.42512763409607" width="395.52"><g><svg viewBox="0 0 395.52 90.42512763409607" height="90.42512763409607" width="395.52"><g><svg viewBox="0 0 395.52 90.42512763409607" height="90.42512763409607" width="395.52"><g><svg viewBox="0 0 395.52 90.42512763409607" height="90.42512763409607" width="395.52"><g><svg viewBox="0 0 395.52 64.39330428800733" height="64.39330428800733" width="395.52"><g transform="matrix(1,0,0,1,0,0)"><svg width="395.52" viewBox="3.9000000953674316 -35 218.04000854492188 35.5" height="64.39330428800733" data-palette-color="#ea9937"><g class="undefined-text-0" data-fill-palette-color="primary" id="text-0"><path d="M20 0L5.1 0Q4.6 0 4.25-0.35 3.9-0.7 3.9-1.2L3.9-1.2 3.9-33.75Q3.9-34.3 4.25-34.65 4.6-35 5.1-35L5.1-35 19.6-35Q23.65-35 26.2-33.77 28.75-32.55 29.98-30.4 31.2-28.25 31.2-25.4L31.2-25.4Q31.2-23.5 30.53-22.08 29.85-20.65 28.88-19.75 27.9-18.85 26.95-18.35L26.95-18.35Q28.9-17.45 30.4-15.35 31.9-13.25 31.9-10.35L31.9-10.35Q31.9-7.35 30.55-5 29.2-2.65 26.55-1.33 23.9 0 20 0L20 0ZM10.85-15.45L10.85-5.3 19.2-5.3Q21.9-5.3 23.3-6.78 24.7-8.25 24.7-10.35L24.7-10.35Q24.7-12.55 23.28-14 21.85-15.45 19.2-15.45L19.2-15.45 10.85-15.45ZM10.85-29.75L10.85-20.65 18.7-20.65Q21.35-20.65 22.68-21.93 24-23.2 24-25.25L24-25.25Q24-27.35 22.68-28.55 21.35-29.75 18.7-29.75L18.7-29.75 10.85-29.75ZM48.8 0.5L48.8 0.5Q43.25 0.5 40-2.7 36.75-5.9 36.5-11.8L36.5-11.8Q36.45-12.3 36.45-13.08 36.45-13.85 36.5-14.3L36.5-14.3Q36.7-18.1 38.22-20.83 39.75-23.55 42.45-25.03 45.15-26.5 48.8-26.5L48.8-26.5Q52.85-26.5 55.6-24.83 58.35-23.15 59.75-20.18 61.15-17.2 61.15-13.3L61.15-13.3 61.15-12.25Q61.15-11.75 60.8-11.4 60.45-11.05 59.9-11.05L59.9-11.05 43.3-11.05Q43.3-11.05 43.3-10.9 43.3-10.75 43.3-10.65L43.3-10.65Q43.35-8.9 43.97-7.43 44.6-5.95 45.82-5.05 47.05-4.15 48.75-4.15L48.75-4.15Q50.15-4.15 51.1-4.58 52.05-5 52.65-5.55 53.25-6.1 53.5-6.45L53.5-6.45Q53.95-7.05 54.22-7.18 54.5-7.3 55.05-7.3L55.05-7.3 59.35-7.3Q59.85-7.3 60.17-7 60.5-6.7 60.45-6.25L60.45-6.25Q60.4-5.45 59.62-4.3 58.85-3.15 57.4-2.05 55.95-0.95 53.77-0.23 51.6 0.5 48.8 0.5ZM43.3-15.4L43.3-15.25 54.35-15.25 54.35-15.4Q54.35-17.35 53.7-18.82 53.05-20.3 51.8-21.13 50.55-21.95 48.8-21.95L48.8-21.95Q47.05-21.95 45.8-21.13 44.55-20.3 43.92-18.82 43.3-17.35 43.3-15.4L43.3-15.4ZM77.65 0.5L77.65 0.5Q72.1 0.5 68.85-2.7 65.6-5.9 65.35-11.8L65.35-11.8Q65.3-12.3 65.3-13.08 65.3-13.85 65.35-14.3L65.35-14.3Q65.55-18.1 67.07-20.83 68.6-23.55 71.3-25.03 74-26.5 77.65-26.5L77.65-26.5Q81.7-26.5 84.45-24.83 87.2-23.15 88.6-20.18 90-17.2 90-13.3L90-13.3 90-12.25Q90-11.75 89.65-11.4 89.3-11.05 88.75-11.05L88.75-11.05 72.15-11.05Q72.15-11.05 72.15-10.9 72.15-10.75 72.15-10.65L72.15-10.65Q72.2-8.9 72.82-7.43 73.45-5.95 74.67-5.05 75.9-4.15 77.6-4.15L77.6-4.15Q79-4.15 79.95-4.58 80.9-5 81.5-5.55 82.1-6.1 82.35-6.45L82.35-6.45Q82.8-7.05 83.07-7.18 83.35-7.3 83.9-7.3L83.9-7.3 88.2-7.3Q88.7-7.3 89.02-7 89.35-6.7 89.3-6.25L89.3-6.25Q89.25-5.45 88.47-4.3 87.7-3.15 86.25-2.05 84.8-0.95 82.62-0.23 80.45 0.5 77.65 0.5ZM72.15-15.4L72.15-15.25 83.2-15.25 83.2-15.4Q83.2-17.35 82.55-18.82 81.9-20.3 80.65-21.13 79.4-21.95 77.65-21.95L77.65-21.95Q75.9-21.95 74.65-21.13 73.4-20.3 72.77-18.82 72.15-17.35 72.15-15.4L72.15-15.4ZM101.29 0L97.09 0Q96.59 0 96.24-0.35 95.89-0.7 95.89-1.2L95.89-1.2 95.89-33.75Q95.89-34.3 96.24-34.65 96.59-35 97.09-35L97.09-35 100.94-35Q101.64-35 101.97-34.68 102.29-34.35 102.39-34.2L102.39-34.2 116.79-11.8 116.79-33.75Q116.79-34.3 117.12-34.65 117.44-35 117.99-35L117.99-35 122.19-35Q122.74-35 123.09-34.65 123.44-34.3 123.44-33.75L123.44-33.75 123.44-1.25Q123.44-0.7 123.09-0.35 122.74 0 122.24 0L122.24 0 118.34 0Q117.64 0 117.34-0.35 117.04-0.7 116.89-0.8L116.89-0.8 102.54-22.7 102.54-1.2Q102.54-0.7 102.19-0.35 101.84 0 101.29 0L101.29 0ZM141.84 0.5L141.84 0.5Q136.29 0.5 133.04-2.7 129.79-5.9 129.54-11.8L129.54-11.8Q129.49-12.3 129.49-13.08 129.49-13.85 129.54-14.3L129.54-14.3Q129.74-18.1 131.27-20.83 132.79-23.55 135.49-25.03 138.19-26.5 141.84-26.5L141.84-26.5Q145.89-26.5 148.64-24.83 151.39-23.15 152.79-20.18 154.19-17.2 154.19-13.3L154.19-13.3 154.19-12.25Q154.19-11.75 153.84-11.4 153.49-11.05 152.94-11.05L152.94-11.05 136.34-11.05Q136.34-11.05 136.34-10.9 136.34-10.75 136.34-10.65L136.34-10.65Q136.39-8.9 137.02-7.43 137.64-5.95 138.87-5.05 140.09-4.15 141.79-4.15L141.79-4.15Q143.19-4.15 144.14-4.58 145.09-5 145.69-5.55 146.29-6.1 146.54-6.45L146.54-6.45Q146.99-7.05 147.27-7.18 147.54-7.3 148.09-7.3L148.09-7.3 152.39-7.3Q152.89-7.3 153.22-7 153.54-6.7 153.49-6.25L153.49-6.25Q153.44-5.45 152.67-4.3 151.89-3.15 150.44-2.05 148.99-0.95 146.81-0.23 144.64 0.5 141.84 0.5ZM136.34-15.4L136.34-15.25 147.39-15.25 147.39-15.4Q147.39-17.35 146.74-18.82 146.09-20.3 144.84-21.13 143.59-21.95 141.84-21.95L141.84-21.95Q140.09-21.95 138.84-21.13 137.59-20.3 136.97-18.82 136.34-17.35 136.34-15.4L136.34-15.4ZM169.79 0L166.59 0Q165.89 0 165.54-0.35 165.19-0.7 164.94-1.25L164.94-1.25 157.79-24.45Q157.74-24.7 157.74-24.9L157.74-24.9Q157.74-25.35 158.06-25.68 158.39-26 158.79-26L158.79-26 162.49-26Q163.09-26 163.44-25.68 163.79-25.35 163.84-25.05L163.84-25.05 168.74-8.5 173.94-24.9Q174.04-25.25 174.39-25.63 174.74-26 175.44-26L175.44-26 177.94-26Q178.64-26 178.99-25.63 179.34-25.25 179.44-24.9L179.44-24.9 184.64-8.5 189.54-25.05Q189.59-25.35 189.91-25.68 190.24-26 190.84-26L190.84-26 194.54-26Q194.99-26 195.31-25.68 195.64-25.35 195.64-24.9L195.64-24.9Q195.64-24.7 195.54-24.45L195.54-24.45 188.39-1.25Q188.24-0.7 187.86-0.35 187.49 0 186.79 0L186.79 0 183.54 0Q182.89 0 182.46-0.35 182.04-0.7 181.89-1.25L181.89-1.25 176.69-17.05 171.49-1.25Q171.29-0.7 170.91-0.35 170.54 0 169.79 0L169.79 0ZM210.34 0.5L210.34 0.5Q207.34 0.5 205.21-0.2 203.09-0.9 201.74-1.95 200.38-3 199.74-4.05 199.09-5.1 199.03-5.8L199.03-5.8Q198.99-6.35 199.36-6.68 199.74-7 200.19-7L200.19-7 204.13-7Q204.34-7 204.49-6.95 204.63-6.9 204.88-6.65L204.88-6.65Q205.53-6.1 206.26-5.5 206.99-4.9 207.99-4.48 208.99-4.05 210.49-4.05L210.49-4.05Q212.44-4.05 213.76-4.83 215.09-5.6 215.09-7.05L215.09-7.05Q215.09-8.1 214.51-8.75 213.94-9.4 212.38-9.93 210.84-10.45 207.99-11.05L207.99-11.05Q205.19-11.7 203.34-12.7 201.49-13.7 200.59-15.2 199.69-16.7 199.69-18.7L199.69-18.7Q199.69-20.65 200.86-22.43 202.03-24.2 204.36-25.35 206.69-26.5 210.13-26.5L210.13-26.5Q212.84-26.5 214.84-25.83 216.84-25.15 218.16-24.15 219.49-23.15 220.19-22.13 220.88-21.1 220.94-20.35L220.94-20.35Q220.99-19.8 220.63-19.48 220.28-19.15 219.84-19.15L219.84-19.15 216.13-19.15Q215.88-19.15 215.69-19.25 215.49-19.35 215.28-19.5L215.28-19.5Q214.74-20 214.09-20.58 213.44-21.15 212.51-21.55 211.59-21.95 210.09-21.95L210.09-21.95Q208.19-21.95 207.19-21.13 206.19-20.3 206.19-19.05L206.19-19.05Q206.19-18.2 206.66-17.57 207.13-16.95 208.59-16.4 210.03-15.85 212.99-15.25L212.99-15.25Q216.34-14.65 218.31-13.48 220.28-12.3 221.11-10.78 221.94-9.25 221.94-7.4L221.94-7.4Q221.94-5.15 220.61-3.35 219.28-1.55 216.71-0.53 214.13 0.5 210.34 0.5Z" fill="#ea9937" data-fill-palette-color="primary"></path></g></svg></g></svg></g><g transform="matrix(1,0,0,1,163.310208,79.59501799110295)"><svg viewBox="0 0 232.209792 10.830109642993117" height="10.830109642993117" width="232.209792"><g transform="matrix(1,0,0,1,0,0)"><svg width="232.209792" viewBox="-12.5 -31.25 682.8499755859375 31.850000381469727" height="10.830109642993117" data-palette-color="#ea9937"><path d="M15.7-31.25L31.1-31.25Q34.7-31.25 36.33-30 37.95-28.75 37.95-26.15L37.95-26.15Q37.95-22.35 36.27-19.9 34.6-17.45 32.2-16.85L32.2-16.85 32.15-16.55Q36.65-15.7 36.65-10.6L36.65-10.6Q36.65-6.1 34.2-3.05 31.75 0 27.3 0L27.3 0 10.2 0 15.7-31.25ZM25.6-12.45L25.6-12.45 21.85-12.45 20.95-7.35 24.65-7.35Q25.9-7.35 26.55-8.35 27.2-9.35 27.2-10.9 27.2-12.45 25.6-12.45ZM27-24.4L27-24.4 24-24.4 23.15-19.75 26.1-19.75Q28.4-19.75 28.4-23L28.4-23Q28.4-24.4 27-24.4ZM9.1-2.4L8.7-0.15-12.5-2.4 9.1-2.4ZM10.8-12.05L10.4-9.8-10.8-12.05 10.8-12.05ZM11.65-16.85L11.25-14.6-9.95-16.85 11.65-16.85ZM12.5-21.65L12.1-19.4-9.1-21.65 12.5-21.65ZM13.3-26.45L12.95-24.2-8.25-26.45 13.3-26.45ZM9.95-7.25L9.55-5-11.65-7.25 9.95-7.25ZM14.15-31.25L13.75-29-7.4-31.25 14.15-31.25ZM67.5-15.55L66.65-10.75 59.2-10.75 58.6-7.35 67.85-7.35 66.55 0 48.9 0 53.5-26.45 71.1-26.45 68.75-18.95 60.6-18.95 60-15.55 67.5-15.55ZM47.65-2.4L47.25-0.15 26.05-2.4 47.65-2.4ZM49.35-12.05L48.95-9.8 27.75-12.05 49.35-12.05ZM50.2-16.85L49.8-14.6 28.6-16.85 50.2-16.85ZM51.05-21.65L50.65-19.4 29.45-21.65 51.05-21.65ZM51.85-26.45L51.5-24.2 30.3-26.45 51.85-26.45ZM48.5-7.25L48.1-5 26.9-7.25 48.5-7.25ZM92.14-12.05L91.74-9.8 70.54-12.05 92.14-12.05ZM92.99-16.85L92.59-14.6 71.39-16.85 92.99-16.85ZM93.84-21.65L93.44-19.4 72.24-21.65 93.84-21.65ZM94.64-26.45L94.29-24.2 73.09-26.45 94.64-26.45ZM70.39-7.25L91.54-7.25 91.54-6.25Q91.54-5.4 91.59-5L91.59-5 70.39-7.25ZM93.49-0.15L93.49-0.15 72.29-2.4 92.04-2.4Q92.59-1 93.49-0.15ZM101.24-7L103.74-7Q105.09-7 105.62-7.33 106.14-7.65 106.34-8.9L106.34-8.9 109.49-26.45 117.89-26.45 115.29-11.55Q114.09-4.55 111.42-1.98 108.74 0.6 102.29 0.6L102.29 0.6Q97.14 0.6 95.09-0.93 93.04-2.45 93.04-6.25L93.04-6.25Q93.04-8.35 93.59-11.55L93.59-11.55 96.24-26.45 104.64-26.45 101.24-7ZM142.39-6.2L142.39-6.2 137.54-6.2 136.44 0 128.04 0 132.64-26.45 145.34-26.45Q152.59-26.45 152.59-19.6L152.59-19.6Q152.59-16.5 151.69-13.9 150.79-11.3 149.74-9.8 148.69-8.3 146.77-7.25 144.84-6.2 142.39-6.2ZM142.89-14.4L143.49-17.8Q143.49-17.85 143.54-18.1L143.54-18.1Q143.54-19.15 141.39-19.15L141.39-19.15 139.79-19.15 138.74-12.95 140.29-12.95Q141.44-12.95 142.09-13.23 142.74-13.5 142.89-14.4L142.89-14.4ZM126.79-2.4L126.39-0.15 105.19-2.4 126.79-2.4ZM128.49-12.05L128.09-9.8 106.89-12.05 128.49-12.05ZM129.34-16.85L128.94-14.6 107.74-16.85 129.34-16.85ZM130.19-21.65L129.79-19.4 108.59-21.65 130.19-21.65ZM130.99-26.45L130.64-24.2 109.44-26.45 130.99-26.45ZM127.64-7.25L127.24-5 106.04-7.25 127.64-7.25ZM167.39-26.45L178.64-26.45Q184.09-26.45 186.44-24.5 188.79-22.55 188.79-18.25L188.79-18.25Q188.79-16.2 188.24-13.2L188.24-13.2Q186.99-6.1 183.91-3.05 180.84 0 173.99 0L173.99 0 162.79 0 167.39-26.45ZM177.44-19.15L177.44-19.15 174.54-19.15 172.44-7.15 175.34-7.15Q176.79-7.15 177.56-7.53 178.34-7.9 178.54-9.05L178.54-9.05 179.99-17.3Q180.04-17.5 180.04-18.1L180.04-18.1Q180.04-19.15 177.44-19.15ZM161.54-2.4L161.14-0.15 139.94-2.4 161.54-2.4ZM163.24-12.05L162.84-9.8 141.64-12.05 163.24-12.05ZM164.09-16.85L163.69-14.6 142.49-16.85 164.09-16.85ZM164.94-21.65L164.54-19.4 143.34-21.65 164.94-21.65ZM165.74-26.45L165.39-24.2 144.19-26.45 165.74-26.45ZM162.39-7.25L161.99-5 140.79-7.25 162.39-7.25ZM226.39 0L217.64 0 217.44-4.05 211.14-4.05 209.59 0 200.94 0 212.04-26.45 224.44-26.45 226.39 0ZM213.79-11.2L217.44-11.2 217.44-18.8 216.74-18.8 213.79-11.2ZM200.28-2.4L199.34-0.2 178.84-2.4 200.28-2.4ZM202.34-7.25L201.39-5.05 180.89-7.25 202.34-7.25ZM204.34-12.05L203.44-9.85 182.94-12.05 204.34-12.05ZM206.39-16.85L205.44-14.65 184.99-16.85 206.39-16.85ZM208.39-21.65L207.49-19.45 187.03-21.65 208.39-21.65ZM210.39-26.45L209.49-24.3 189.09-26.45 210.39-26.45ZM260.43-26.45L259.08-18.95 253.68-18.95 250.38 0 241.58 0 244.88-18.95 239.33-18.95 240.68-26.45 260.43-26.45ZM240.48-2.4L240.08-0.15 218.88-2.4 240.48-2.4ZM242.18-12.05L241.78-9.8 220.58-12.05 242.18-12.05ZM243.03-16.85L242.63-14.6 221.43-16.85 243.03-16.85ZM238.23-21.65L237.83-19.4 216.63-21.65 238.23-21.65ZM239.03-26.45L238.68-24.2 217.48-26.45 239.03-26.45ZM241.33-7.25L240.93-5 219.73-7.25 241.33-7.25ZM287.68-15.55L286.83-10.75 279.38-10.75 278.78-7.35 288.03-7.35 286.73 0 269.08 0 273.68-26.45 291.28-26.45 288.93-18.95 280.78-18.95 280.18-15.55 287.68-15.55ZM267.83-2.4L267.43-0.15 246.23-2.4 267.83-2.4ZM269.53-12.05L269.13-9.8 247.93-12.05 269.53-12.05ZM270.38-16.85L269.98-14.6 248.78-16.85 270.38-16.85ZM271.23-21.65L270.83-19.4 249.63-21.65 271.23-21.65ZM272.03-26.45L271.68-24.2 250.48-26.45 272.03-26.45ZM268.68-7.25L268.28-5 247.08-7.25 268.68-7.25ZM306.48-26.45L317.73-26.45Q323.18-26.45 325.53-24.5 327.88-22.55 327.88-18.25L327.88-18.25Q327.88-16.2 327.33-13.2L327.33-13.2Q326.08-6.1 323-3.05 319.93 0 313.08 0L313.08 0 301.88 0 306.48-26.45ZM316.53-19.15L316.53-19.15 313.63-19.15 311.53-7.15 314.43-7.15Q315.88-7.15 316.65-7.53 317.43-7.9 317.63-9.05L317.63-9.05 319.08-17.3Q319.13-17.5 319.13-18.1L319.13-18.1Q319.13-19.15 316.53-19.15ZM300.63-2.4L300.23-0.15 279.03-2.4 300.63-2.4ZM302.33-12.05L301.93-9.8 280.73-12.05 302.33-12.05ZM303.18-16.85L302.78-14.6 281.58-16.85 303.18-16.85ZM304.03-21.65L303.63-19.4 282.43-21.65 304.03-21.65ZM304.83-26.45L304.48-24.2 283.28-26.45 304.83-26.45ZM301.48-7.25L301.08-5 279.88-7.25 301.48-7.25ZM359.37 0L350.62 0 355.22-26.45 364.02-26.45 359.37 0ZM349.37-2.4L348.97-0.15 327.77-2.4 349.37-2.4ZM351.07-12.05L350.67-9.8 329.47-12.05 351.07-12.05ZM351.92-16.85L351.52-14.6 330.32-16.85 351.92-16.85ZM352.77-21.65L352.37-19.4 331.17-21.65 352.77-21.65ZM353.57-26.45L353.22-24.2 332.02-26.45 353.57-26.45ZM350.22-7.25L349.82-5 328.62-7.25 350.22-7.25ZM397.37 0L390.57 0 385.42-9.9 385.22-9.9 383.47 0 375.07 0 379.67-26.45 386.47-26.45 391.67-16.6 391.97-16.6 393.67-26.45 402.02-26.45 397.37 0ZM373.82-2.4L373.42-0.15 352.22-2.4 373.82-2.4ZM375.52-12.05L375.12-9.8 353.92-12.05 375.52-12.05ZM376.37-16.85L375.97-14.6 354.77-16.85 376.37-16.85ZM377.22-21.65L376.82-19.4 355.62-21.65 377.22-21.65ZM378.02-26.45L377.67-24.2 356.47-26.45 378.02-26.45ZM374.67-7.25L374.27-5 353.07-7.25 374.67-7.25ZM412.32-0.15L391.42-2.4 413.02-2.4 412.32-0.15ZM395.27-21.65L416.82-21.65Q416.52-20.85 416.17-19.4L416.17-19.4 395.27-21.65ZM415.57-15L415.57-15 415.57-14.6 394.37-16.85 415.67-16.85Q415.57-15.65 415.57-15ZM414.62-7.25L413.92-5.05 393.07-7.25 414.62-7.25ZM398.72-26.45L420.27-26.45Q418.92-25.45 418.22-24.35L418.22-24.35 398.72-26.45ZM396.32-12.05L416.02-12.05Q416.47-10.75 417.47-9.8L417.47-9.8 396.32-12.05ZM438.37-25.9L435.97-18.6Q432.57-19.4 430.17-19.4 427.77-19.4 426.62-19.25L426.62-19.25 426.37-17.8 428.87-17.5Q436.92-16.45 436.92-10.85L436.92-10.85Q436.92-10.2 436.62-8.43 436.32-6.65 435.62-5 434.92-3.35 433.84-2.33 432.77-1.3 431.74-0.68 430.72-0.05 429.12 0.2L429.12 0.2Q426.62 0.6 422.44 0.6 418.27 0.6 414.02-0.55L414.02-0.55 416.47-7.95Q420.37-6.85 423.29-6.85 426.22-6.85 427.42-7L427.42-7 427.67-8.6 424.52-8.95Q420.47-9.4 418.77-10.85 417.07-12.3 417.07-15L417.07-15Q417.07-16 417.32-17.5L417.32-17.5Q418.32-22.85 420.92-24.9 423.52-26.95 428.84-26.95 434.17-26.95 438.37-25.9L438.37-25.9ZM471.91-26.45L470.56-18.95 465.16-18.95 461.86 0 453.06 0 456.36-18.95 450.81-18.95 452.16-26.45 471.91-26.45ZM451.96-2.4L451.56-0.15 430.36-2.4 451.96-2.4ZM453.66-12.05L453.26-9.8 432.06-12.05 453.66-12.05ZM454.51-16.85L454.11-14.6 432.91-16.85 454.51-16.85ZM449.71-21.65L449.31-19.4 428.11-21.65 449.71-21.65ZM450.51-26.45L450.16-24.2 428.96-26.45 450.51-26.45ZM452.81-7.25L452.41-5 431.21-7.25 452.81-7.25ZM503.41 0L494.66 0 494.46-4.05 488.16-4.05 486.61 0 477.96 0 489.06-26.45 501.46-26.45 503.41 0ZM490.81-11.2L494.46-11.2 494.46-18.8 493.76-18.8 490.81-11.2ZM477.31-2.4L476.36-0.2 455.86-2.4 477.31-2.4ZM479.36-7.25L478.41-5.05 457.91-7.25 479.36-7.25ZM481.36-12.05L480.46-9.85 459.96-12.05 481.36-12.05ZM483.41-16.85L482.46-14.65 462.01-16.85 483.41-16.85ZM485.41-21.65L484.51-19.45 464.06-21.65 485.41-21.65ZM487.41-26.45L486.51-24.3 466.11-26.45 487.41-26.45ZM538.76 0L531.96 0 526.81-9.9 526.61-9.9 524.86 0 516.46 0 521.06-26.45 527.86-26.45 533.06-16.6 533.36-16.6 535.06-26.45 543.41-26.45 538.76 0ZM515.21-2.4L514.81-0.15 493.61-2.4 515.21-2.4ZM516.91-12.05L516.51-9.8 495.31-12.05 516.91-12.05ZM517.76-16.85L517.36-14.6 496.16-16.85 517.76-16.85ZM518.61-21.65L518.21-19.4 497.01-21.65 518.61-21.65ZM519.41-26.45L519.06-24.2 497.86-26.45 519.41-26.45ZM516.06-7.25L515.66-5 494.46-7.25 516.06-7.25ZM572.46-8.05L571.66-0.55Q568.96 0.6 564.16 0.6 559.36 0.6 557.08-1.43 554.81-3.45 554.81-7.8L554.81-7.8Q554.81-9.75 555.41-13.2L555.41-13.2Q556.66-20.45 559.73-23.7 562.81-26.95 569.56-26.95L569.56-26.95Q574.41-26.95 576.21-25.85L576.21-25.85 573.66-18.9Q571.16-19.6 569.11-19.6 567.06-19.6 566.23-19.25 565.41-18.9 565.21-17.9L565.21-17.9 563.26-7.2Q564.31-6.95 566.88-6.95 569.46-6.95 572.46-8.05L572.46-8.05ZM533.71-12.05L553.66-12.05Q553.46-10.5 553.41-9.95L553.41-9.95 533.71-12.05ZM534.61-16.85L554.61-16.85 554.16-14.75 534.61-16.85ZM533.91-7.25L553.36-7.25Q553.36-6.45 553.56-5.15L553.56-5.15 533.91-7.25ZM536.61-21.65L556.36-21.65Q555.76-20.35 555.51-19.65L555.51-19.65 536.61-21.65ZM538.26-2.4L554.41-2.4Q555.01-1.2 555.71-0.55L555.71-0.55 538.26-2.4ZM543.31-26.45L560.71-26.45Q559.51-25.75 558.66-24.8L558.66-24.8 543.31-26.45ZM604.5-15.55L603.65-10.75 596.2-10.75 595.6-7.35 604.85-7.35 603.55 0 585.9 0 590.5-26.45 608.1-26.45 605.75-18.95 597.6-18.95 597-15.55 604.5-15.55ZM584.65-2.4L584.25-0.15 563.05-2.4 584.65-2.4ZM586.35-12.05L585.95-9.8 564.75-12.05 586.35-12.05ZM587.2-16.85L586.8-14.6 565.6-16.85 587.2-16.85ZM588.05-21.65L587.65-19.4 566.45-21.65 588.05-21.65ZM588.85-26.45L588.5-24.2 567.3-26.45 588.85-26.45ZM585.5-7.25L585.1-5 563.9-7.25 585.5-7.25ZM636.25-7.35L634.95 0 618.7 0 623.3-26.45 632.1-26.45 628.75-7.35 636.25-7.35ZM617.45-2.4L617.05-0.15 595.85-2.4 617.45-2.4ZM619.15-12.05L618.75-9.8 597.55-12.05 619.15-12.05ZM620-16.85L619.6-14.6 598.4-16.85 620-16.85ZM620.85-21.65L620.45-19.4 599.25-21.65 620.85-21.65ZM621.65-26.45L621.3-24.2 600.1-26.45 621.65-26.45ZM618.3-7.25L617.9-5 596.7-7.25 618.3-7.25ZM648.95-2.4L648.55-0.15 627.35-2.4 648.95-2.4ZM649.8-7.25L649.4-5 628.2-7.25 649.8-7.25ZM646.95-21.65L647.4-19.4 626.2-21.65 646.95-21.65ZM645.95-26.45L646.4-24.2 625.2-26.45 645.95-26.45ZM647.95-16.85L648.4-14.6 627.2-16.85 647.95-16.85ZM648.9-12.05L649.4-9.8 628.2-12.05 648.9-12.05ZM647.45-26.45L656.05-26.45 657.15-16.85 657.45-16.85 661.6-26.45 670.35-26.45 659.75-7.55 658.5 0 650.05 0 651.35-7.55 647.45-26.45Z" opacity="1" transform="matrix(1,0,0,1,0,0)" fill="#ea9937" class="undefined-text-1" data-fill-palette-color="secondary" id="text-1"></path></svg></g></svg></g></svg></g></svg></g></svg></g><defs></defs></svg><rect width="395.52" height="90.42512763409607" fill="none" stroke="none" visibility="hidden"></rect></g></svg></g></svg>